<?xml version="1.0" encoding="iso-8859-1"?>
<!-- Uploaded to: SVG Repo, www.svgrepo.com, Generator: SVG Repo Mixer Tools -->
<!DOCTYPE svg PUBLIC "-//W3C//DTD SVG 1.1//EN" "http://www.w3.org/Graphics/SVG/1.1/DTD/svg11.dtd">
<svg fill="#000000" version="1.1" id="Capa_1" xmlns="http://www.w3.org/2000/svg" xmlns:xlink="http://www.w3.org/1999/xlink" 
	 width="800px" height="800px" viewBox="0 0 31.5 31.5" xml:space="preserve">
<g>
	<path d="M15.052,8.563l0.136-0.004v1.368c-0.088-0.005-0.135-0.008-0.139-0.008c-0.557,0-0.834-0.23-0.834-0.693
		C14.215,8.784,14.492,8.563,15.052,8.563z M15.823,10.781v1.478h0.136c0.604,0,0.906-0.261,0.906-0.779
		c0-0.285-0.066-0.472-0.2-0.563C16.529,10.826,16.25,10.781,15.823,10.781z M20.637,10.256c0,2.831-2.295,5.126-5.125,5.126
		c-2.829,0-5.125-2.295-5.125-5.126s2.296-5.125,5.125-5.125C18.342,5.131,20.637,7.425,20.637,10.256z M17.82,11.464
		c0-0.548-0.123-0.926-0.369-1.13c-0.245-0.206-0.719-0.328-1.418-0.366l-0.21-0.01V8.563h0.147c0.518,0,0.774,0.206,0.774,0.62
		l0.004,0.102h0.91v-0.13c0-0.547-0.131-0.922-0.391-1.123c-0.26-0.201-0.742-0.301-1.447-0.301V7.187h-0.637v0.544
		c-0.738,0-1.244,0.104-1.518,0.314s-0.41,0.602-0.41,1.172c0,0.59,0.137,0.991,0.408,1.207c0.271,0.214,0.777,0.32,1.52,0.32v1.514
		l-0.139-0.004c-0.381,0-0.627-0.05-0.736-0.149c-0.108-0.099-0.164-0.321-0.164-0.666v-0.096h-0.94L13.2,11.532
		c0,0.562,0.135,0.959,0.404,1.187c0.271,0.227,0.738,0.341,1.402,0.341l0.178,0.005v0.624h0.637v-0.624l0.193-0.005
		c0.666,0,1.135-0.12,1.401-0.355C17.686,12.466,17.82,12.054,17.82,11.464z M22.337,7.701v2H31.5v-2H22.337z M22.337,13.868H31.5
		v-2h-9.163V13.868z M22.337,18.035H31.5v-2h-9.163V18.035z M22.337,22.202H31.5v-2h-9.163V22.202z M22.337,26.369H31.5v-2h-9.163
		V26.369z M11.168,18.035h9.164v-2h-9.164V18.035z M11.168,22.202h9.164v-2h-9.164V22.202z M11.168,26.369h9.164v-2h-9.164V26.369z
		 M0,22.202h9.163v-2H0V22.202z M0,26.369h9.163v-2H0V26.369z"/>
</g>
</svg>