<?xml version="1.0" encoding="utf-8"?>
<!-- Uploaded to: SVG Repo, www.svgrepo.com, Generator: SVG Repo Mixer Tools -->
<!DOCTYPE svg PUBLIC "-//W3C//DTD SVG 1.1//EN" "http://www.w3.org/Graphics/SVG/1.1/DTD/svg11.dtd">
<svg fill="#000000" width="800px" height="800px" viewBox="0 0 1000 1000" version="1.1" xmlns="http://www.w3.org/2000/svg" xmlns:xlink="http://www.w3.org/1999/xlink"  enable-background="new 0 0 1000 1000" xml:space="preserve">
<metadata> Svg Vector Icons : http://www.onlinewebfonts.com/icon </metadata>
<g>
<g transform="translate(0.000000,511.000000) scale(0.100000,-0.100000)">
<path d="M1478.1,4458.6c-325.3-76.8-644.6-400.1-719.3-727.4c-14.2-58.6-22.2-1079-22.2-2903.6v-2814.7l-58.6-20.2c-206.1-72.7-412.2-258.6-513.2-462.7L100-2601.4v-505.2v-505.2l64.7-137.4c86.9-183.9,260.7-357.7,444.5-444.5l137.4-64.7H5000h4253.4l137.4,64.7c183.9,86.9,357.7,260.6,444.5,444.5l64.7,137.4v505.2v505.2l-64.7,131.3c-99,200-301.1,388-487,452.6l-74.8,26.3l-10.1,2867.2l-10.1,2867.3l-46.5,109.1c-127.3,299.1-402.1,539.5-693.1,606.2C8400.7,4484.9,1589.2,4484.9,1478.1,4458.6z M8515.9,3848.4c26.3-14.2,70.7-56.6,95-93l46.5-68.7V861.9v-2826.8H7350c-1279.1,0-1309.4,0-1392.2-42.5c-115.2-54.5-169.7-165.7-169.7-337.4v-125.3h-788h-788v125.3c0,171.7-54.6,282.9-169.7,337.4c-82.8,42.5-113.2,42.5-1392.2,42.5H1342.7V861.9v2824.8l46.5,68.7c24.3,36.4,68.7,78.8,95,93C1556.9,3886.8,8443.1,3886.8,8515.9,3848.4z M3605.8-2696.4c0-171.7,54.6-282.9,169.7-337.4c82.8-40.4,115.2-42.4,1224.5-42.4c1109.3,0,1141.7,2,1224.5,42.4c115.2,54.6,169.7,165.7,169.7,337.4v125.3h1402.3c1386.1,0,1402.3,0,1454.8-42.4l52.5-40.4v-454.6v-454.6l-50.5-48.5l-48.5-50.5H5000H795.1l-48.5,50.5l-50.5,48.5v454.6v454.6l52.5,40.4c52.5,42.4,68.7,42.4,1454.8,42.4h1402.3V-2696.4z"/>
<path d="M2009.5,823.5v-2222.7H5000h2990.5V823.5v2222.7H5000H2009.5V823.5z M7384.3,823.5V-793H5000H2615.7V823.5V2440H5000h2384.3V823.5z"/>
<path d="M3302.7,1389.3v-303.1H5000h1697.3v303.1v303.1H5000H3302.7V1389.3z"/>
<path d="M3322.9,136.5v-303.1h868.9h868.9v303.1v303.1h-868.9h-868.9V136.5z"/>
</g>
</g>
</svg>