<?xml version="1.0" encoding="utf-8"?>
<!-- Generator: Adobe Illustrator 21.0.0, SVG Export Plug-In . SVG Version: 6.00 Build 0)  -->
<svg version="1.1" id="Layer_1" xmlns="http://www.w3.org/2000/svg" xmlns:xlink="http://www.w3.org/1999/xlink" x="0px" y="0px"
	 viewBox="0 0 512 512" style="enable-background:new 0 0 512 512;" xml:space="preserve">
<g>
	<path d="M198.9,0C124.7,0,65.7,59,65.7,133.2c0,45.7,22.8,87.6,59,110.4C56.1,270.3,8.6,338.8,8.6,416.8h38.1
		c0-83.7,68.5-152.3,152.3-152.3c11.4,0,20.9,1.9,30.4,3.8l3-3.4c-20.8,26.1-33.4,59-33.4,94.8c0,83.7,68.5,152.3,152.3,152.3
		s152.3-68.5,152.3-152.3s-68.5-152.3-152.3-152.3c-16.9,0-33.1,2.9-48.4,8.1c18.3-22.7,29.3-52.5,29.3-82.3
		C332.1,59,273.1,0,198.9,0z M198.9,36.2c53.3,0,95.2,41.9,95.2,95.2s-41.9,95.2-95.2,95.2s-95.2-41.9-95.2-95.2
		S145.6,36.2,198.9,36.2z M261.2,237.3l-1.6,1.2L261.2,237.3z M351.2,245.5c62.8,0,114.2,51.4,114.2,114.2S414,473.9,351.2,473.9
		S237,422.5,237,359.7S288.4,245.5,351.2,245.5z M246.4,249.6c-2.3,2.2-4.6,4.5-6.8,6.9C241.8,254.2,244.1,251.9,246.4,249.6z
		 M332.1,283.6v87.5l-32.3,32.4l26.6,26.6l43.8-43.8V283.6H332.1z"/>
</g>
</svg>
